<svg width="48" height="48" viewBox="0 0 48 48" fill="none" xmlns="http://www.w3.org/2000/svg">
<path d="M24.1815 13.3177L13.3177 24.1815C11.5603 25.9389 11.5603 28.7881 13.3177 30.5455L17.4543 34.6821C19.2116 36.4394 22.0609 36.4394 23.8182 34.6821L34.682 23.8183C36.4394 22.0609 36.4394 19.2117 34.682 17.4543L30.5455 13.3177C28.7881 11.5604 25.9389 11.5604 24.1815 13.3177Z" stroke="#E9771A" stroke-linecap="round" stroke-linejoin="round"/>
<path d="M16.5 16.5L31.5 31.5" stroke="#E9771A" stroke-linecap="round" stroke-linejoin="round"/>
<path d="M43.5 4.5L32.6137 15.3862" stroke="#E9771A" stroke-linecap="round" stroke-linejoin="round"/>
<path d="M15.3862 32.6138L4.5 43.5" stroke="#E9771A" stroke-linecap="round" stroke-linejoin="round"/>
<path d="M18 6L19.5 9.75" stroke="#E9771A" stroke-linecap="round" stroke-linejoin="round"/>
<path d="M6 18L9.75 19.5" stroke="#E9771A" stroke-linecap="round" stroke-linejoin="round"/>
<path d="M38.25 28.5L42 30" stroke="#E9771A" stroke-linecap="round" stroke-linejoin="round"/>
<path d="M28.5 38.25L30 42" stroke="#E9771A" stroke-linecap="round" stroke-linejoin="round"/>
</svg>
